#!OML:ASF E:\Mandelcareful walks\Project 1\Capture day 1\Session 1\Subject1.ASF
:FULLY-SPECIFIED
:DEGREES
1171
root 21.3896 15.6801 10.8666 -1496.07 -74.8055 -296.246
lowerback 11.3675 -0.0647397 -10.0837
upperback 2.95309 -1.45842 -1.79401
thorax -3.06459 -0.741131 3.98895
lowerneck -27.9734 -3.80131 -7.52739
upperneck 23.713 -3.40357 4.02885
head 12.7411 -1.65373 2.15522
rclavicle -2.04748e-014 1.35174e-014
rhumerus -49.7304 9.88884 -87.4288
rradius 47.9721
rwrist -22.1821
rhand -13.9043 -29.124
rfingers 7.12502
rthumb 12.2214 -58.7469
lclavicle -2.04748e-014 1.35174e-014
lhumerus -34.5669 -18.1288 84.8305
lradius 76.2184
lwrist 29.6121
lhand -32.2067 -12.6733
lfingers 7.12502
lthumb -5.44828 17.2367
rfemur -40.1446 -14.5808 11.5995
rtibia 85.26
rfoot -10.8235 -3.52888
rtoes 4.78227
lfemur -12.1946 6.67951 -28.698
ltibia 47.348
lfoot -25.4329 3.4055
ltoes -14.5782
1172
root 20.7605 15.7678 10.8955 -1500.02 -74.8066 -292.243
lowerback 10.9528 -0.406391 -10.2611
upperback 2.77124 -1.87304 -1.60311
thorax -2.95546 -0.940514 4.33372
lowerneck -28.262 -3.18371 -7.07817
upperneck 24.4434 -2.37239 2.87271
head 12.9983 -1.33832 1.83106
rclavicle 1.94809e-014 -4.77083e-015
rhumerus -51.1727 10.0634 -87.334
rradius 48.6517
rwrist -23.0849
rhand -12.3242 -27.9244
rfingers 7.12502
rthumb 13.7445 -57.4505
lclavicle 1.94809e-014 -4.77083e-015
lhumerus -34.1708 -20.1993 85.9218
lradius 78.9165
lwrist 29.3637
lhand -31.6693 -15.9637
lfingers 7.12502
lthumb -4.92941 13.9589
rfemur -43.7466 -13.2503 13.2902
rtibia 79.7017
rfoot -11.3758 -3.35783
rtoes 4.67117
lfemur -9.59948 6.94118 -28.3548
ltibia 46.8618
lfoot -21.0633 1.98604
ltoes -15.7383
1173
root 20.1048 15.8905 10.9073 -1504.12 -74.8635 -287.997
lowerback 10.3382 -0.682755 -10.1782
upperback 2.68151 -2.15005 -1.55161
thorax -2.67029 -1.08657 4.35716
lowerneck -28.7131 -2.72937 -6.78045
upperneck 25.1362 -1.62125 2.17629
head 13.3161 -1.09813 1.65632
rclavicle -1.78906e-015 2.22639e-014
rhumerus -52.2097 9.9514 -87.2451
rradius 49.6377
rwrist -23.9678
rhand -9.84891 -28.6837
rfingers 7.12502
rthumb 16.1291 -58.0325
lclavicle -1.78906e-015 2.22639e-014
lhumerus -33.8411 -22.8945 86.4812
lradius 81.176
lwrist 28.0987
lhand -30.544 -17.6733
lfingers 7.12502
lthumb -3.84283 12.2718
rfemur -45.7623 -12.5213 15.0263
rtibia 72.582
rfoot -11.3945 -3.17218
rtoes 10.6989
lfemur -7.96514 7.46666 -27.6191
ltibia 47.0621
lfoot -15.7363 0.284836
ltoes -18.1369
1174
root 19.4203 16.0037 10.9086 -1509.47 -74.9649 -282.747
lowerback 9.61079 -0.773896 -9.94904
upperback 2.7257 -2.15834 -1.66697
thorax -2.23407 -1.11416 4.08478
lowerneck -29.2734 -2.49044 -6.46975
upperneck 26.1364 -1.2503 1.71872
head 13.8191 -0.998286 1.5012
rclavicle -2.38542e-014 -1.82882e-014
rhumerus -52.7155 9.85505 -87.5289
rradius 49.4358
rwrist -24.444
rhand -8.15362 -28.7956
rfingers 7.12502
rthumb 17.761 -58.0045
lclavicle -2.38542e-014 -1.82882e-014
lhumerus -34.0735 -25.8452 86.7527
lradius 82.9102
lwrist 25.571
lhand -28.7814 -22.7529
lfingers 7.12502
lthumb -2.14057 7.21607
rfemur -46.575 -11.805 16.7836
rtibia 64.6874
rfoot -11.9543 -6.00134
rtoes 10.8204
lfemur -6.22997 8.4443 -26.6108
ltibia 48.0061
lfoot -8.80586 -2.01126
ltoes -15.1126
1175
root 18.7728 16.1253 10.8793 -1510.29 -74.0258 -281.533
lowerback 8.92595 -1.1777 -10.4643
upperback 2.76186 -2.66013 -1.83398
thorax -1.72748 -1.39072 4.21711
lowerneck -30.0359 -2.33018 -6.27251
upperneck 26.8775 -1.01835 1.59161
head 14.2738 -0.913485 1.46833
rclavicle 7.95139e-015 2.94201e-014
rhumerus -52.6987 9.4923 -87.6392
rradius 49.3787
rwrist -24.037
rhand -6.41866 -29.9949
rfingers 7.12502
rthumb 19.4299 -59.0442
lclavicle 7.95139e-015 2.94201e-014
lhumerus -33.9161 -28.5594 86.7052
lradius 84.1101
lwrist 22.2589
lhand -27.8866 -22.4699
lfingers 7.12502
lthumb -1.2764 7.50605
rfemur -46.915 -11.8749 17.5733
rtibia 56.807
rfoot -13.6451 -7.08733
rtoes 18.6772
lfemur -6.69367 8.02021 -26.3112
ltibia 49.9782
lfoot -3.14641 -3.53482
ltoes -24.7938
1176
root 18.1039 16.2008 10.8649 -1511.53 -74.4144 -280.173
lowerback 8.64112 -1.4137 -9.67754
upperback 2.32554 -2.87183 -1.62609
thorax -2.02691 -1.45824 4.01664
lowerneck -29.7896 -2.20195 -6.10455
upperneck 27.9239 -0.774038 1.0117
head 14.6714 -0.917575 1.25651
rclavicle 1.27222e-014 -4.21423e-014
rhumerus -53.7596 9.28993 -87.6495
rradius 49.4308
rwrist -23.5106
rhand -5.88705 -27.3593
rfingers 7.12502
rthumb 19.9409 -56.3562
lclavicle 1.27222e-014 -4.21423e-014
lhumerus -35.2882 -30.9003 87.6413
lradius 83.6998
lwrist 19.8308
lhand -28.2098 -23.5657
lfingers 7.12502
lthumb -1.58855 6.40813
rfemur -46.948 -11.7627 19.7072
rtibia 49.7102
rfoot -14.2524 -7.32542
rtoes 19.52
lfemur -7.36138 7.65866 -24.8086
ltibia 52.9555
lfoot 1.05976 -5.19106
ltoes -18.8341
1177
root 17.4496 16.2087 10.8668 -1512.73 -74.4974 -279.468
lowerback 7.89466 -1.65891 -9.08678
upperback 2.94234 -3.02391 -1.44371
thorax -0.967307 -1.60374 3.84078
lowerneck -30.3839 -2.3723 -6.06952
upperneck 28.5909 -0.766519 0.340921
head 15.0941 -1.03595 0.97012
rclavicle 2.78299e-014 4.77083e-015
rhumerus -53.2209 9.04563 -87.0944
rradius 49.5019
rwrist -22.4034
rhand -4.15467 -25.4354
rfingers 7.12502
rthumb 21.6054 -54.2501
lclavicle 2.78299e-014 4.77083e-015
lhumerus -34.8222 -32.4661 87.6556
lradius 82.2967
lwrist 21.7592
lhand -26.9847 -23.0081
lfingers 7.12502
lthumb -0.405334 6.97122
rfemur -46.3482 -13.333 22.1893
rtibia 44.6229
rfoot -11.7955 -9.22534
rtoes 18.0757
lfemur -7.99628 6.71814 -23.7199
ltibia 56.8661
lfoot 2.03899 -4.63256
ltoes -21.5525
1178
root 16.8252 16.144 10.8662 -1515.38 -73.4852 -277.209
lowerback 7.95916 -1.6245 -9.71864
upperback 3.13276 -3.03456 -1.52243
thorax -0.770299 -1.63292 4.10674
lowerneck -30.3615 -2.90569 -7.00224
upperneck 28.82 -1.26667 0.823079
head 15.2298 -1.28523 1.22026
rclavicle 1.51076e-014 2.22639e-014
rhumerus -52.59 9.40062 -86.7763
rradius 49.4413
rwrist -21.6588
rhand -2.35356 -26.0044
rfingers 7.12502
rthumb 23.3342 -54.6102
lclavicle 1.51076e-014 2.22639e-014
lhumerus -35.123 -33.8027 88.2776
lradius 79.7744
lwrist 25.438
lhand -26.5471 -21.3955
lfingers 7.12502
lthumb 0.0173418 8.58421
rfemur -45.7159 -14.5274 22.9912
rtibia 41.95
rfoot -10.3154 -11.9333
rtoes 18.6222
lfemur -9.74261 5.95633 -24.1473
ltibia 61.3631
lfoot 0.618703 -2.36291
ltoes -22.2988
1179
root 16.2122 16.03 10.8607 -1520.08 -72.9409 -273.842
lowerback 8.83225 -1.24583 -10.1105
upperback 3.60194 -2.66384 -1.51225
thorax -0.792939 -1.47751 4.33232
lowerneck -29.9737 -3.44138 -7.85957
upperneck 28.9199 -1.75114 1.01701
head 15.2374 -1.564 1.34032
rclavicle 3.18055e-015 -1.74931e-014
rhumerus -52.0148 9.72088 -86.4734
rradius 49.4442
rwrist -20.9167
rhand -1.39567 -25.1963
rfingers 7.12502
rthumb 24.2529 -53.6824
lclavicle 3.18055e-015 -1.74931e-014
lhumerus -35.6089 -34.6011 88.9448
lradius 77.1778
lwrist 28.216
lhand -25.8334 -20.7851
lfingers 7.12502
lthumb 0.70663 9.19347
rfemur -43.7864 -15.155 23.8642
rtibia 41.572
rfoot -7.96124 -12.3279
rtoes 26.3962
lfemur -11.036 5.72923 -23.9423
ltibia 65.9555
lfoot -1.75491 0.848478
ltoes -21.5982
1180
root 15.6232 15.8669 10.8761 -1525.01 -72.4326 -270.278
lowerback 9.94219 -0.825394 -10.0067
upperback 4.04734 -2.24103 -1.66843
thorax -1.01213 -1.28336 4.10589
lowerneck -29.6147 -3.95306 -8.44634
upperneck 29.121 -2.26083 0.982286
head 15.298 -1.86174 1.31319
rclavicle -1.98785e-015 -5.24792e-014
rhumerus -51.0039 10.2718 -86.3476
rradius 49.6064
rwrist -19.5351
rhand 0.317595 -25.728
rfingers 7.12502
rthumb 25.8945 -53.9847
lclavicle -1.98785e-015 -5.24792e-014
lhumerus -36.2751 -34.8236 89.3451
lradius 74.2668
lwrist 29.9994
lhand -24.8194 -16.4447
lfingers 7.12502
lthumb 1.68597 13.5284
rfemur -41.1776 -15.8734 24.483
rtibia 42.8058
rfoot -12.773 -15.6723
rtoes 33.61
lfemur -12.9738 5.51338 -23.7256
ltibia 70.2045
lfoot -4.08562 3.49242
ltoes -21.6541
1181
root 15.0483 15.6997 10.873 -1531.82 -72.7943 -265.109
lowerback 11.5067 -0.245445 -9.01189
upperback 4.70324 -1.56062 -1.67036
thorax -1.31332 -0.960641 3.51232
lowerneck -29.5539 -4.45471 -8.67454
upperneck 29.2201 -2.81459 0.737415
head 15.3678 -2.16147 1.12531
rclavicle -2.82274e-014 -5.40694e-014
rhumerus -49.6619 11.0507 -86.4369
rradius 49.9542
rwrist -18.4306
rhand 0.885262 -25.8122
rfingers 7.12502
rthumb 26.438 -53.9883
lclavicle -2.82274e-014 -5.40694e-014
lhumerus -36.8067 -34.4992 89.4371
lradius 70.9205
lwrist 30.9629
lhand -23.1339 -13.6786
lfingers 7.12502
lthumb 3.31381 16.2754
rfemur -37.7007 -13.9696 24.3766
rtibia 44.7322
rfoot -19.461 -17.2264
rtoes 34.1655
lfemur -15.3317 6.09117 -22.2149
ltibia 73.7285
lfoot -5.91368 5.42286
ltoes -18.3687
